<svg width="891" height="904" viewBox="0 0 891 904" fill="none" xmlns="http://www.w3.org/2000/svg">
<path d="M408.072 33.4603C412.816 -11.1534 477.741 -11.1534 482.485 33.4603V33.4603C486.455 70.7962 536.801 79.6736 553.301 45.9471V45.9471C573.017 5.64631 634.027 27.8523 623.226 71.3978V71.3978C614.187 107.84 658.461 133.401 685.5 107.352V107.352C717.811 76.2249 767.547 117.959 742.504 155.184V155.184C721.546 186.336 754.407 225.499 788.726 210.269V210.269C829.734 192.07 862.197 248.297 825.932 274.712V274.712C795.583 296.818 813.068 344.858 850.526 342.284V342.284C895.286 339.208 906.56 403.148 863.448 415.566V415.566C827.369 425.959 827.369 477.082 863.448 487.474V487.474C906.56 499.893 895.286 563.832 850.526 560.757V560.757C813.068 558.183 795.583 606.223 825.932 628.329V628.329C862.197 654.743 829.734 710.971 788.726 692.772V692.772C754.407 677.542 721.546 716.704 742.504 747.857V747.857C767.547 785.082 717.811 826.816 685.501 795.689V795.689C658.461 769.639 614.187 795.201 623.226 831.643V831.643C634.027 875.188 573.017 897.394 553.301 857.093V857.093C536.801 823.367 486.455 832.244 482.485 869.58V869.58C477.741 914.194 412.816 914.194 408.072 869.58V869.58C404.102 832.244 353.756 823.367 337.256 857.093V857.093C317.54 897.394 256.53 875.188 267.331 831.643V831.643C276.37 795.201 232.096 769.639 205.056 795.689V795.689C172.746 826.816 123.01 785.082 148.053 747.857V747.857C169.011 716.704 136.15 677.542 101.831 692.772V692.772C60.8228 710.971 28.3599 654.743 64.6248 628.329V628.329C94.9737 606.223 77.4886 558.183 40.0306 560.757V560.757C-4.72887 563.832 -16.0031 499.893 27.109 487.474V487.474C63.1883 477.082 63.1883 425.959 27.109 415.566V415.566C-16.0031 403.148 -4.72886 339.208 40.0307 342.284V342.284C77.4886 344.858 94.9737 296.818 64.6248 274.712V274.712C28.3599 248.297 60.8229 192.07 101.831 210.269V210.269C136.15 225.499 169.011 186.336 148.053 155.184V155.184C123.01 117.959 172.746 76.2249 205.057 107.352V107.352C232.096 133.401 276.37 107.84 267.331 71.3978V71.3978C256.53 27.8523 317.54 5.64632 337.256 45.9471V45.9471C353.756 79.6737 404.102 70.7962 408.072 33.4603V33.4603Z" fill="white"/>
</svg>
